<svg xmlns="http://www.w3.org/2000/svg" xmlns:xlink="http://www.w3.org/1999/xlink" width="400px" height="400px" viewBox="0 0 400 400"><defs><style>.cls-1{fill:none;}.cls-2{clip-path:url(#clip-path);}.cls-3{fill:url(#linear-gradient);}</style><clipPath id="clip-path"><path class="cls-1" d="M200,0C89.54,0,0,89.55,0,200S89.54,400,200,400s200-89.51,200-200S310.44,0,200,0ZM120.31,121.3h115l-17.47,28h-115ZM312.39,261l-17.47-27.9h-51l17.5-27.95h16.12L258,174l-54.35,87h-145l34.91-55.85H68l17.42-27.94H197.47L180,205.15H126.57L109.1,233.1h79.08L258,121.3,345.34,261Z"/></clipPath><linearGradient id="linear-gradient" x1="202.35" y1="398.27" x2="197.35" y2="-22.91" gradientUnits="userSpaceOnUse"><stop offset="0" stop-color="#8491ae"/><stop offset="0.11" stop-color="#909dbb"/><stop offset="0.26" stop-color="#9caac8"/><stop offset="0.26" stop-color="#9dabc9"/><stop offset="0.42" stop-color="#b6c3df"/><stop offset="0.56" stop-color="#c5d2ed"/><stop offset="0.67" stop-color="#cad7f2"/><stop offset="0.77" stop-color="#c3d0ea"/><stop offset="0.92" stop-color="#b0bcd5"/><stop offset="0.96" stop-color="#aab6cf"/></linearGradient></defs><g id="Layer_2" data-name="Layer 2"><g id="Medallion"><g class="cls-2"><rect class="cls-3" width="400" height="400"/></g></g></g></svg>